<mxfile host="app.diagrams.net" agent="Mozilla/5.0 (Windows NT 10.0; Win64; x64) AppleWebKit/537.36 (KHTML, like Gecko) Chrome/128.0.0.0 Safari/537.36" version="24.7.10">
  <diagram name="Página-1" id="--2s6BElNok6ZuXWij4p">
    <mxGraphModel dx="1075" dy="464" grid="1" gridSize="10" guides="1" tooltips="1" connect="1" arrows="1" fold="1" page="1" pageScale="1" pageWidth="827" pageHeight="1169" math="0" shadow="0">
      <root>
        <mxCell id="0" />
        <mxCell id="1" parent="0" />
        <mxCell id="TBPxZxeUpHGVxc2AKl5v-3" style="edgeStyle=orthogonalEdgeStyle;rounded=0;orthogonalLoop=1;jettySize=auto;html=1;" edge="1" parent="1" source="TBPxZxeUpHGVxc2AKl5v-5" target="TBPxZxeUpHGVxc2AKl5v-4">
          <mxGeometry relative="1" as="geometry">
            <mxPoint x="400" y="120" as="targetPoint" />
          </mxGeometry>
        </mxCell>
        <mxCell id="TBPxZxeUpHGVxc2AKl5v-2" value="inicio" style="strokeWidth=2;html=1;shape=mxgraph.flowchart.terminator;whiteSpace=wrap;" vertex="1" parent="1">
          <mxGeometry x="350" y="30" width="100" height="60" as="geometry" />
        </mxCell>
        <mxCell id="TBPxZxeUpHGVxc2AKl5v-8" style="edgeStyle=orthogonalEdgeStyle;rounded=0;orthogonalLoop=1;jettySize=auto;html=1;" edge="1" parent="1" source="TBPxZxeUpHGVxc2AKl5v-4">
          <mxGeometry relative="1" as="geometry">
            <mxPoint x="400" y="350" as="targetPoint" />
          </mxGeometry>
        </mxCell>
        <mxCell id="TBPxZxeUpHGVxc2AKl5v-22" style="edgeStyle=orthogonalEdgeStyle;rounded=0;orthogonalLoop=1;jettySize=auto;html=1;" edge="1" parent="1" source="TBPxZxeUpHGVxc2AKl5v-4" target="TBPxZxeUpHGVxc2AKl5v-23">
          <mxGeometry relative="1" as="geometry">
            <mxPoint x="400" y="650" as="targetPoint" />
            <Array as="points">
              <mxPoint x="520" y="260" />
              <mxPoint x="520" y="610" />
            </Array>
          </mxGeometry>
        </mxCell>
        <mxCell id="TBPxZxeUpHGVxc2AKl5v-4" value="I &amp;lt;= 15" style="strokeWidth=2;html=1;shape=mxgraph.flowchart.decision;whiteSpace=wrap;" vertex="1" parent="1">
          <mxGeometry x="350" y="210" width="100" height="100" as="geometry" />
        </mxCell>
        <mxCell id="TBPxZxeUpHGVxc2AKl5v-6" value="" style="edgeStyle=orthogonalEdgeStyle;rounded=0;orthogonalLoop=1;jettySize=auto;html=1;" edge="1" parent="1" source="TBPxZxeUpHGVxc2AKl5v-2" target="TBPxZxeUpHGVxc2AKl5v-5">
          <mxGeometry relative="1" as="geometry">
            <mxPoint x="400" y="210" as="targetPoint" />
            <mxPoint x="400" y="90" as="sourcePoint" />
          </mxGeometry>
        </mxCell>
        <mxCell id="TBPxZxeUpHGVxc2AKl5v-5" value="I ← 0" style="rounded=1;whiteSpace=wrap;html=1;absoluteArcSize=1;arcSize=14;strokeWidth=2;" vertex="1" parent="1">
          <mxGeometry x="350" y="130" width="100" height="40" as="geometry" />
        </mxCell>
        <mxCell id="TBPxZxeUpHGVxc2AKl5v-11" value="&lt;span style=&quot;font-size: 24px;&quot;&gt;S&lt;/span&gt;" style="text;html=1;align=center;verticalAlign=middle;resizable=0;points=[];autosize=1;strokeColor=none;fillColor=none;" vertex="1" parent="1">
          <mxGeometry x="350" y="303" width="40" height="40" as="geometry" />
        </mxCell>
        <mxCell id="TBPxZxeUpHGVxc2AKl5v-14" style="edgeStyle=orthogonalEdgeStyle;rounded=0;orthogonalLoop=1;jettySize=auto;html=1;" edge="1" parent="1" source="TBPxZxeUpHGVxc2AKl5v-13">
          <mxGeometry relative="1" as="geometry">
            <mxPoint x="401" y="430" as="targetPoint" />
          </mxGeometry>
        </mxCell>
        <mxCell id="TBPxZxeUpHGVxc2AKl5v-13" value="R ← I ↑ 3" style="rounded=1;whiteSpace=wrap;html=1;absoluteArcSize=1;arcSize=14;strokeWidth=2;" vertex="1" parent="1">
          <mxGeometry x="351" y="350" width="100" height="40" as="geometry" />
        </mxCell>
        <mxCell id="TBPxZxeUpHGVxc2AKl5v-16" style="edgeStyle=orthogonalEdgeStyle;rounded=0;orthogonalLoop=1;jettySize=auto;html=1;" edge="1" parent="1" source="TBPxZxeUpHGVxc2AKl5v-15">
          <mxGeometry relative="1" as="geometry">
            <mxPoint x="340" y="260" as="targetPoint" />
            <Array as="points">
              <mxPoint x="400" y="590" />
              <mxPoint x="300" y="590" />
              <mxPoint x="300" y="260" />
            </Array>
          </mxGeometry>
        </mxCell>
        <mxCell id="TBPxZxeUpHGVxc2AKl5v-15" value="R" style="strokeWidth=2;html=1;shape=mxgraph.flowchart.display;whiteSpace=wrap;" vertex="1" parent="1">
          <mxGeometry x="350" y="430" width="100" height="60" as="geometry" />
        </mxCell>
        <mxCell id="TBPxZxeUpHGVxc2AKl5v-18" value="&lt;span style=&quot;font-size: 24px;&quot;&gt;N&lt;/span&gt;" style="text;html=1;align=center;verticalAlign=middle;resizable=0;points=[];autosize=1;strokeColor=none;fillColor=none;" vertex="1" parent="1">
          <mxGeometry x="470" y="220" width="40" height="40" as="geometry" />
        </mxCell>
        <mxCell id="TBPxZxeUpHGVxc2AKl5v-23" value="Fim" style="strokeWidth=2;html=1;shape=mxgraph.flowchart.terminator;whiteSpace=wrap;" vertex="1" parent="1">
          <mxGeometry x="350" y="650" width="100" height="60" as="geometry" />
        </mxCell>
        <mxCell id="TBPxZxeUpHGVxc2AKl5v-24" value="I ← I + 1" style="rounded=1;whiteSpace=wrap;html=1;absoluteArcSize=1;arcSize=14;strokeWidth=2;" vertex="1" parent="1">
          <mxGeometry x="351" y="520" width="100" height="40" as="geometry" />
        </mxCell>
        <mxCell id="TBPxZxeUpHGVxc2AKl5v-25" style="edgeStyle=orthogonalEdgeStyle;rounded=0;orthogonalLoop=1;jettySize=auto;html=1;exitX=0.5;exitY=1;exitDx=0;exitDy=0;exitPerimeter=0;" edge="1" parent="1" source="TBPxZxeUpHGVxc2AKl5v-15" target="TBPxZxeUpHGVxc2AKl5v-24">
          <mxGeometry relative="1" as="geometry" />
        </mxCell>
      </root>
    </mxGraphModel>
  </diagram>
</mxfile>
